<svg xmlns="http://www.w3.org/2000/svg" viewBox="0 0 343.926 51.997"><defs><style>.cls-1{fill:#0cb59b;}.cls-2{fill:#2a2a2a;}</style></defs><title>logo</title><g id="レイヤー_2" data-name="レイヤー 2"><g id="レイヤー_1-2" data-name="レイヤー 1"><path class="cls-1" d="M26,52A26,26,0,1,1,52,26,26.028,26.028,0,0,1,26,52Zm0-50.64A24.642,24.642,0,1,0,50.64,26,24.669,24.669,0,0,0,26,1.357Z"/><path class="cls-1" d="M27.343,11.082A15,15,0,0,1,40.915,24.654a.621.621,0,0,0,.615.574h2.023a.619.619,0,0,0,.621-.659A18.232,18.232,0,0,0,27.428,7.823a.619.619,0,0,0-.66.62v2.023A.622.622,0,0,0,27.343,11.082Z"/><path class="cls-1" d="M11.083,24.654A15,15,0,0,1,24.654,11.082a.621.621,0,0,0,.575-.616V8.443a.619.619,0,0,0-.66-.62A18.232,18.232,0,0,0,7.823,24.569a.62.62,0,0,0,.621.659h2.023A.622.622,0,0,0,11.083,24.654Z"/><path class="cls-1" d="M40.915,27.343A15,15,0,0,1,27.343,40.914a.623.623,0,0,0-.575.616v2.023a.62.62,0,0,0,.66.621A18.233,18.233,0,0,0,44.174,27.427a.619.619,0,0,0-.621-.659H41.53A.621.621,0,0,0,40.915,27.343Z"/><path class="cls-1" d="M24.654,40.914A15,15,0,0,1,11.083,27.343a.622.622,0,0,0-.616-.575H8.444a.62.62,0,0,0-.621.659A18.233,18.233,0,0,0,24.569,44.174a.62.62,0,0,0,.66-.621V41.53A.622.622,0,0,0,24.654,40.914Z"/><path class="cls-1" d="M22.138,35.111H20.45a.79.79,0,0,1-.836-.837.858.858,0,0,1,.836-.9h1.688V32.328H20.952a1.1,1.1,0,0,1-1.171-1.246V26.945a1.188,1.188,0,0,1,1.232-1.383h4.1c.882.045,1.141.394,1.141,1.489v4.06c-.016.837-.335,1.186-1.141,1.217H23.887v1.049h1.566a.815.815,0,0,1,.882.851.831.831,0,0,1-.882.883H23.887v1.338c.562-.153,1.094-.3,1.277-.381a2.776,2.776,0,0,1,.669-.121.792.792,0,0,1,.715.821c0,.441-.244.669-.852.867A26.593,26.593,0,0,1,20.329,38.9a.814.814,0,0,1-.381-1.551,4.291,4.291,0,0,1,1-.259c.441-.092.836-.166,1.186-.243Zm0-6.934V27.2h-.5a.248.248,0,0,0-.258.288v.685Zm-.76,2.205c.015.228.106.319.334.319h.426v-.973h-.76Zm3.193-2.205v-.639a.287.287,0,0,0-.228-.334h-.456v.973ZM24.313,30.7c.152,0,.243-.076.258-.259v-.714h-.684V30.7Zm4.242,2.418c0-.7.319-1.065.912-1.065s.837.3.837,1V37.6c0,1.125-.517,1.566-1.871,1.566-1.383,0-1.992-.3-1.992-.973,0-.41.35-.866.669-.866a1.847,1.847,0,0,1,.532.091,2.784,2.784,0,0,0,.548.091.433.433,0,0,0,.365-.472Zm.35-3.057c-.2-.167-.365-.3-.442-.365-.653-.532-.9-.867-.9-1.247a.848.848,0,0,1,.836-.8.813.813,0,0,1,.547.228.624.624,0,0,1,.153.121c.091.061.228.168.395.3.608-.471.866-.76.866-.958,0-.091-.091-.136-.243-.136H27.278a.748.748,0,0,1-.806-.821.734.734,0,0,1,.806-.821h4.911a.727.727,0,0,1,.806.7c0,.7-.927,1.916-2.387,3.117l.684.684h1.125a.966.966,0,0,1,1.049.988c0,.366-.06.563-.532,1.445-.715,1.4-.943,1.642-1.49,1.642a.755.755,0,0,1-.821-.73.629.629,0,0,1,.06-.334l.548-.9a.672.672,0,0,0,.106-.289c0-.107-.106-.152-.3-.152H27.4a.8.8,0,0,1-.821-.852.783.783,0,0,1,.821-.821Z"/><path class="cls-1" d="M27.352,6.256A19.816,19.816,0,0,1,45.74,24.644a.619.619,0,0,0,.615.584h2.022A.621.621,0,0,0,49,24.575,23.044,23.044,0,0,0,27.421,3a.621.621,0,0,0-.653.622V5.642A.619.619,0,0,0,27.352,6.256Z"/><path class="cls-1" d="M6.257,24.644A19.817,19.817,0,0,1,24.645,6.256a.619.619,0,0,0,.584-.614V3.62A.621.621,0,0,0,24.576,3,23.044,23.044,0,0,0,3,24.575a.621.621,0,0,0,.622.653H5.642A.619.619,0,0,0,6.257,24.644Z"/><path class="cls-1" d="M24.645,45.74A19.817,19.817,0,0,1,6.257,27.352a.619.619,0,0,0-.615-.584H3.62A.621.621,0,0,0,3,27.421,23.043,23.043,0,0,0,24.576,49a.62.62,0,0,0,.653-.621V46.355A.619.619,0,0,0,24.645,45.74Z"/><path class="cls-1" d="M45.74,27.352A19.816,19.816,0,0,1,27.352,45.74a.619.619,0,0,0-.584.615v2.022a.62.62,0,0,0,.653.621A23.043,23.043,0,0,0,49,27.421a.621.621,0,0,0-.622-.653H46.355A.619.619,0,0,0,45.74,27.352Z"/><path class="cls-2" d="M73.054,37.495H90.022v1.2h2.744c-.056-1.036-.084-2.688-.084-4.9V25.791c0-2.52,0-3.528.084-4.452-.728.028-1.4.056-2.38.056H85.094V17.307h3.36c1.708,0,4.088.056,5.572.112V14.731c-1.4.056-3.808.112-5.572.112H74.286c-1.6,0-4.116-.056-5.572-.112v2.688c1.512-.056,4.032-.112,5.572-.112H77.31V21.4H72.69c-.98,0-1.652-.028-2.38-.056.028.9.084,2.772.084,4.452v8.4c0,2.156-.028,3.78-.084,4.9h2.744Zm16.968-2.548H73.054v-11H77.2a11.558,11.558,0,0,1-1.064,4.032A7.747,7.747,0,0,1,73.418,30.8a7.045,7.045,0,0,1,1.54,2.38,11.273,11.273,0,0,0,3.3-3.248,14.173,14.173,0,0,0,1.624-5.992h2.548v5.376c0,1.008.14,1.484.476,1.792.532.476,1.624.7,3.472.7,1.484,0,2.24-.168,2.66-.644.588-.616.672-1.26.7-3.752a10.871,10.871,0,0,1-2.156-.728,6.37,6.37,0,0,1,.028.672c0,1.792-.112,1.932-1.316,1.932-1.008,0-1.2-.112-1.2-.756V23.943h4.928ZM82.434,21.4H79.97V17.307h2.464Z"/><path class="cls-2" d="M104.442,26.771h1.9v.588h2.576c-.056-.644-.084-1.6-.084-2.912v-7.14c0-.868.028-1.96.084-2.464-.616.028-1.2.056-2.016.056H99.6c-.812,0-1.4-.028-2.016-.056.028.5.084,1.6.084,2.464v7.532c0,1.372-.028,2.324-.084,2.968h2.576V26.771h1.792v2.408H99.262c-.588,0-1.6,0-2.212-.028v2.492c.588-.028,1.456-.028,2.212-.028h2.688v2.8c-1.876.224-3.7.42-5.88.616l.924,2.8a.52.52,0,0,0,.392.336c.168,0,.336-.168.56-.532,3.976-.644,7.5-1.288,11.984-2.24l-.252-2.24c-2.016.364-3.7.644-5.236.9V31.615H107.3c.756,0,1.624,0,2.24.028V29.151c-.644.028-1.652.028-2.24.028h-2.856Zm0-2.352V22.011h1.9v2.408Zm-2.492,0h-1.792V22.011h1.792Zm2.492-4.732V17.223h1.9v2.464Zm-2.492,0h-1.792V17.223h1.792ZM117.63,17.2c-.7.672-1.428,1.344-2.184,1.96-.672-.5-1.344-.98-2.044-1.428l-1.4,1.6A21.459,21.459,0,0,1,116.37,23.3h-4.592c-.588,0-1.6-.028-2.212-.056v2.464l2.212-.028h2.128v9.66c0,.98-.112,1.092-1.092,1.092-.672,0-1.12-.028-2.044-.084a6.94,6.94,0,0,1,.532,2.912c2.688,0,3.584-.112,4.4-.616.7-.42.924-1.036.924-2.408,0-1.54-.056-3.556-.056-5.32V25.679h2.352a22.3,22.3,0,0,1-1.876,2.688,7.937,7.937,0,0,1,1.82,1.54,28.409,28.409,0,0,0,2.828-4.676l.168-.028c.42-.056.588-.168.588-.392,0-.112-.028-.14-.252-.364l-1.568-1.568-.308.42h-3.892l1.708-1.652c-.336-.364-.672-.728-1.036-1.064l1.932-1.68a21.515,21.515,0,0,0,1.988-2.128l.336-.056c.364-.056.5-.168.5-.364,0-.14-.056-.224-.224-.392l-1.54-1.456-.336.42H112.45l-2.24-.028v2.352c.588-.028,1.484-.056,2.24-.056Z"/><path class="cls-2" d="M130.9,22.879h-2.1l2.436-5.32c.784-.224.9-.308.9-.532a.637.637,0,0,0-.224-.392l-1.624-1.6-.308.42h-4.116c-.532,0-1.26,0-1.68-.028v2.52c.42-.028,1.148-.056,1.68-.056h2.3a66.437,66.437,0,0,1-3.556,7.532l2.716.728.392-.868h2.3a21.982,21.982,0,0,1-1.316,5.348,21.874,21.874,0,0,1-1.6-3.752l-2.072.728a18.177,18.177,0,0,0,2.352,5.544,15.656,15.656,0,0,1-4.06,3.976,8.567,8.567,0,0,1,1.652,2.24,18.315,18.315,0,0,0,4.2-4.088c2.576,2.52,5.712,3.416,11.676,3.416,3.864,0,5.88-.056,8.456-.252a21.393,21.393,0,0,1,.588-2.856c-2.576.252-5.18.364-7.672.364-5.852,0-8.736-.588-10.808-2.156-.308-.252-.616-.5-.924-.784a25.829,25.829,0,0,0,2.128-8.064c.56-.168.616-.252.616-.476a.631.631,0,0,0-.224-.448l-1.764-1.54Zm10.948,2.184h2.884v.476h2.576c-.056-1.344-.056-1.708-.056-2.744V21.423c.9,0,1.988.028,2.632.056V19.015c-.672.028-1.68.056-2.632.056V17.9c0-1.54.028-1.96.056-2.464-.784.028-1.2.028-3.276.028h-2.156v-1.12c.364-.252.532-.392.532-.56,0-.14-.2-.252-.476-.28l-2.856-.2a19.223,19.223,0,0,1,.084,2.156h-2.016c-1.064,0-2.408-.028-3.36-.056v2.436c.812-.056,2.436-.084,3.36-.084h2.044v1.316h-3.836c-1.092,0-2.52-.028-3.36-.056v2.464c.868-.028,2.436-.056,3.36-.056h3.836v1.344h-2.044c-1.064,0-2.52-.028-3.36-.084v2.436c.868-.028,2.436-.056,3.36-.056h2.044v1.344h-2.828c-.84,0-2.016-.028-2.8-.056v2.6c.784-.028,1.96-.056,2.8-.056h2.828v1.372h-3.5c-1.064,0-2.492-.028-3.332-.084v2.688c.84-.028,2.408-.056,3.332-.056h3.472c0,1.036-.028,1.876-.056,2.52h2.828c-.028-.672-.056-1.512-.056-2.52h4.4c.924,0,2.492.028,3.36.056V30.187c-.84.056-2.268.084-3.36.084H141.85V28.9h3.416c.84,0,2.016.028,2.8.056v-2.6c-.784.028-1.96.056-2.8.056H141.85Zm0-2.3V21.423h2.884v1.344Zm0-3.7V17.755h2.884v1.316Z"/><path class="cls-2" d="M173.91,25.4l-.42.5h-8.12c-.812,0-1.988,0-2.8-.056v2.576c.644-.028,1.512-.056,2.268-.056a14.09,14.09,0,0,0,3.08,5.908A18.875,18.875,0,0,1,161.7,36.8a8.461,8.461,0,0,1,1.092,2.492c3.556-1.176,5.376-1.988,6.972-3.22a20.713,20.713,0,0,0,6.132,3.192,9.082,9.082,0,0,1,1.316-2.436,24.042,24.042,0,0,1-5.516-2.492,20.715,20.715,0,0,0,3.584-6.244c.728-.224.728-.28.728-.5a.529.529,0,0,0-.2-.392ZM172.4,28.367a16.2,16.2,0,0,1-2.632,4.312,10.087,10.087,0,0,1-1.26-1.624,13.824,13.824,0,0,1-1.26-2.688Zm-17.3,8.624h3.388v1.092h2.66c-.056-.644-.084-1.6-.084-2.912V32.343c0-.868.028-1.96.084-2.464-.616.028-1.2.056-2.016.056h-4.648c-.812,0-1.4-.028-2.044-.056.056.5.084,1.6.084,2.464v3.64c0,1.372-.028,2.324-.084,2.968h2.66Zm3.388-2.24h-3.388v-2.6h3.388Zm14.252-17.668c0-.868.028-1.932.056-2.66-.252,0-.9.056-1.932.056h-4.34c-.756,0-1.6-.028-2.156-.084.056,1.82.056,1.9.056,3.22a7.933,7.933,0,0,1-.392,3.332c-.392.952-.924,1.372-2.8,2.268a7.8,7.8,0,0,1,1.54,2.324,6.914,6.914,0,0,0,3.3-2.632c.728-1.064.98-2.408.98-4.844V16.887H170.1v4.032c0,1.6.084,1.96.532,2.436.392.42,1.316.616,2.828.616,3.78,0,4.144-.336,4.312-4.116a12.729,12.729,0,0,1-2.576-1.092c0,2.66-.028,2.688-1.148,2.688-1.288,0-1.316,0-1.316-.868Zm-12.012,8.9c-.42.028-1.148.028-1.68.028h-4.564c-.532,0-1.26,0-1.68-.028v2.6c.42-.028,1.148-.028,1.68-.028h4.564c.532,0,1.26,0,1.68.028Zm0-3.864c-.42.028-1.148.028-1.68.028h-4.564c-.532,0-1.26,0-1.68-.028v2.6c.42-.028,1.148-.028,1.68-.028h4.564c.532,0,1.26,0,1.68.028Zm0-5.04v-2.6c-.42.028-1.148.056-1.68.056h-4.564c-.532,0-1.26-.028-1.68-.056v2.6l1.68-.028h4.564Zm1.2,1.2c-.616.028-1.624.056-2.24.056h-5.852c-.616,0-1.624-.028-2.24-.056v2.66c.588-.028,1.484-.056,2.24-.056h5.852c.756,0,1.652.028,2.24.056Z"/><path class="cls-2" d="M190.85,34.275h-5.88c-1.6,0-4.116-.028-5.572-.084v2.884c1.512-.056,4.032-.112,5.572-.112H199.7c1.708,0,4.088.056,5.572.112V34.191c-1.428.056-3.808.084-5.572.084h-5.964V19.463h5.292c1.288,0,3.248.056,4.452.084V16.691c-1.2.056-3.164.084-4.452.084H185.67c-1.456,0-3.276-.028-4.48-.084v2.856c1.2-.028,3.024-.084,4.48-.084h5.18Z"/><path class="cls-2" d="M221.23,33.043a15.72,15.72,0,0,0,3.724,2.744,27.168,27.168,0,0,0,7.084,2.716,12,12,0,0,1,1.26-2.548c-4.452-.98-7.336-2.1-9.912-3.92h4.144c1.288,0,3.248.028,4.452.084v-2.38c-1.2.056-3.164.084-4.452.084h-6.3V28.451h3.808c1.288,0,3.276.028,4.48.084V26.183c-1.2.028-3.192.084-4.48.084H221.23V24.951h5.208c1.288,0,3.248.056,4.452.112v-2.38c-1.2.056-3.164.084-4.452.084h-2.184c.364-.7.644-1.26.84-1.624.476-.14.616-.224.616-.392,0-.112-.084-.252-.448-.364h1.82c1.708,0,4.088.028,5.572.084V17.923c-1.316.056-3.444.084-5.152.084q.21-.336.336-.588l.84-1.708c.56-.2.644-.252.644-.448,0-.112-.14-.252-.308-.308l-2.716-.98a16.11,16.11,0,0,1-1.512,4.032h-1.12v-3.5c.392-.224.56-.392.56-.56s-.2-.252-.5-.28l-2.66-.2c.028.42.028,1.036.028,1.792v2.744h-2.044v-3.5c.392-.224.56-.392.56-.56s-.2-.252-.532-.28l-2.632-.2c0,.616.028,1.316.028,1.792v2.744H214.4l.784-.5a13.819,13.819,0,0,0-3-3.612l-1.9,1.484a15.051,15.051,0,0,1,2.044,2.632c-1.568,0-3.612-.028-4.872-.084v2.548c1.512-.056,4.032-.084,5.572-.084h1.148a14.723,14.723,0,0,1,1.232,2.38H213.7c-1.456,0-3.3-.028-4.48-.084v2.38c1.176-.056,3.024-.112,4.48-.112h4.956v1.316H215.07c-1.428,0-3.276-.056-4.452-.084v2.352c1.176-.056,3.024-.084,4.452-.084h3.584v1.372H212.69c-1.456,0-3.276-.028-4.452-.084v2.38c1.176-.056,3-.084,4.452-.084h3.556a28.265,28.265,0,0,1-9.66,4.2,10.563,10.563,0,0,1,1.176,2.464,30.529,30.529,0,0,0,6.412-2.6,21.594,21.594,0,0,0,4.48-3.136v1.484c0,2.268-.028,3.836-.084,4.928h2.744c-.056-1.008-.084-2.8-.084-4.928Zm-3-10.276a10.859,10.859,0,0,0-1.288-2.38h5.684a19.354,19.354,0,0,1-.98,2.38Z"/><path class="cls-2" d="M241.082,21.787h1.008c.728,0,1.568.028,2.212.056v-2.66c-.616.028-1.624.056-2.212.056h-1.008c.028-3.752.028-3.892.056-4.7.364-.224.5-.392.5-.532,0-.168-.168-.252-.42-.28l-2.94-.224c.084.728.14,2.632.168,5.74h-1.372c-.588,0-1.6-.028-2.212-.056v2.66c.644-.028,1.484-.056,2.212-.056h1.036q-.672,2.52-.924,3.192a25.493,25.493,0,0,1-3.08,6.1,10.247,10.247,0,0,1,1.484,2.66,25.106,25.106,0,0,0,2.856-5.292v2.772c0,3.612-.056,6.356-.14,8.176h2.912c-.084-1.792-.14-4.508-.14-8.176V28.7a20.933,20.933,0,0,1,1.568,2.156l1.848-2.212a23.426,23.426,0,0,0-3.416-3.22Zm7.392-3.024c.2-.7.42-1.484.616-2.352.532-.224.616-.308.616-.532,0-.14-.084-.2-.448-.308l-2.492-.756a22.106,22.106,0,0,1-2.856,8.148,7.442,7.442,0,0,1,2.24,1.512,19.789,19.789,0,0,0,1.512-3.192h3.276V24.7h-3.976c-1.064,0-2.52-.028-3.36-.056V27.3c.868-.028,2.436-.056,3.36-.056h2.8a23.953,23.953,0,0,1-8.12,8.372,6.169,6.169,0,0,1,1.624,2.3,23.558,23.558,0,0,0,7.672-7.98v1.288c0,3.612-.056,6.356-.14,8.176h2.912c-.084-1.792-.14-4.508-.14-8.176V29.879a20.862,20.862,0,0,0,5.768,7.224,10.978,10.978,0,0,1,1.9-2.352,20.849,20.849,0,0,1-4.424-4.116,13.885,13.885,0,0,1-2.184-3.388h2.828c.924,0,2.492.028,3.332.056v-2.66c-.812.028-2.268.056-3.332.056H253.57V21.283h2.912c.924,0,2.52.056,3.36.084v-2.66c-.84.028-2.268.056-3.36.056H253.6c0-3.192,0-3.36.028-4.144.364-.224.5-.364.5-.532,0-.14-.168-.252-.42-.28l-2.94-.2c.084.644.14,2.38.168,5.152Z"/><path class="cls-2" d="M271.63,27.219h2.3c.224,0,1.484,0,2.24.028V24.615c-.616.028-1.624.028-2.24.028H266.17c-.616,0-1.624,0-2.24-.028v2.632c.532,0,1.568-.028,2.24-.028h2.744v7.168c-2.044.364-4.116.644-6.132.868l.868,2.828a.6.6,0,0,0,.42.364c.168,0,.336-.168.56-.56,5.544-1.064,10.388-2.156,13.216-3l-.2-2.436c-1.9.532-3.948,1.008-6.02,1.428Zm7.5-8.988v-1.6c0-.868,0-1.2.028-2.016.392-.224.56-.364.56-.56,0-.168-.168-.28-.476-.308l-3.024-.336a20.506,20.506,0,0,1,.168,3.444c0,.476,0,.924.028,1.372H268.13c-1.6,0-4.116-.056-5.572-.112v2.772c1.512-.056,4.032-.084,5.572-.084H276.5a29.949,29.949,0,0,0,1.064,7.28,19.231,19.231,0,0,0,3.528,7.056c1.82,2.3,3.948,3.7,5.544,3.7,1.428,0,2.044-1.456,2.352-5.516l-1.12-.476a10.166,10.166,0,0,1-1.176-.616c-.2,2.716-.336,3.332-.784,3.332-1.288,0-3.864-3.248-5.1-6.384a25.252,25.252,0,0,1-1.6-8.372h3.64c1.708,0,4.088.028,5.572.084V18.119c-1.428.056-3.808.112-5.572.112Zm1.736-3.024a12.964,12.964,0,0,1,2.492,2.856l1.82-1.54a14.51,14.51,0,0,0-2.716-2.688Z"/><path class="cls-2" d="M309.094,23.019a41.944,41.944,0,0,0,5.964,3.36,10.183,10.183,0,0,1,1.708-2.856,31.34,31.34,0,0,1-7.392-3.864,18.118,18.118,0,0,1-4.62-4.732c.448-.168.56-.252.56-.448s-.168-.364-.532-.476l-2.716-.952c-2.884,4.928-6.44,8.092-12.432,11.06a8.571,8.571,0,0,1,1.54,2.744,46.6,46.6,0,0,0,6.076-3.864V25.4c.812-.028,1.988-.056,2.8-.056h6.244c.812,0,1.988.028,2.8.056ZM300.05,22.8c-.84,0-1.652,0-2.492-.056q.5-.378,1.008-.84a27.1,27.1,0,0,0,4.452-4.956,18.926,18.926,0,0,0,4.424,4.844c.392.308.812.644,1.26.952-.812.028-1.6.056-2.408.056Zm14.924,14.168a28.229,28.229,0,0,0-6.832-6.076l-1.792,1.624c.784.616,1.568,1.176,2.3,1.82-2.3.336-4.452.56-7.812.812l-2.184.168c.784-1.064,1.26-1.848,2.352-3.612.168-.28.364-.644.616-1.064h8.2c1.484,0,3.7.028,5.012.084V27.947c-1.26.056-3.472.112-5.012.112h-13.1c-1.428,0-3.864-.056-5.012-.112v2.772c1.2-.056,3.64-.084,5.012-.084h1.82c-.392.728-.756,1.456-1.176,2.184-.532.924-1.148,1.82-1.764,2.688-1.008.028-1.988.112-3,.112h-.9l.784,2.94c.056.168.224.364.364.364q.252,0,.588-.5c2.072-.224,2.38-.252,3.752-.392,4.312-.42,4.564-.448,5.6-.56,3.528-.392,5.264-.644,7.98-1.148.7.784,1.316,1.6,1.96,2.408Z"/><path class="cls-2" d="M324.886,20.919c-1.736,3.388-3.724,5.572-7.672,8.624.448.952.756,1.624.9,2.016.056.14.14.336.224.56a24.4,24.4,0,0,0,3.752-3.276v4.7c0,2.576-.028,4.48-.084,5.74h2.828c-.056-1.26-.084-3.164-.084-5.74V29.235a35.172,35.172,0,0,1,2.576,2.66l1.876-2.24a20.822,20.822,0,0,0-4.452-3.332v-.448c.56-.756,1.092-1.484,1.568-2.268a34.087,34.087,0,0,0,1.736-3.332c.56-.14.644-.224.644-.448a.762.762,0,0,0-.224-.448l-1.652-1.456-.336.448h-1.736V14.423c.392-.224.56-.364.56-.56,0-.14-.2-.252-.5-.28l-2.744-.168c.028.98.028,1.316.028,2.576v2.38h-1.82c-.588,0-1.6-.028-2.212-.056v2.632c.56,0,1.624-.028,2.212-.028Zm9.38,15.176H330.29c-1.232,0-2.828-.028-3.892-.084v2.716c1.148-.028,2.716-.056,3.892-.056h9.716c1.064,0,2.884.028,3.92.056V36.011c-.98.056-2.8.084-3.92.084h-3V24.671h3.08c.924,0,2.492.056,3.36.084V22.039c-.84.056-2.268.084-3.36.084h-3.08v-4.2c0-.9.028-2.352.028-3.164.392-.252.532-.392.532-.56s-.168-.252-.476-.28l-2.912-.2c.056.812.084,1.988.084,4.2v4.2h-2.408c-1.092,0-2.52-.028-3.36-.084v2.716c.84-.028,2.436-.084,3.36-.084h2.408Z"/></g></g></svg>